# WaveFront *.obj file (generated by CINEMA 4D)

mtllib ./frame.mtl

v 31.04993438720703 -14.36341667175293 -1.95154356956482
v -31.02794075012207 -14.36341667175293 -1.95153450965881
v -31.02794075012207 28.93233489990234 -1.95153641700745
v 31.04993438720703 28.93233489990234 -1.95154547691345
v 31.04993629455566 -14.36341667175293 -0.30000355839729
v 31.04993629455566 28.93233489990234 -0.30000546574593
v 32.09922409057617 29.66415023803711 -0.00000559991713
v 32.09922409057617 -15.09523296356201 -0.00000364342236
v -31.02794075012207 28.93233489990234 -0.29999646544456
v -32.07722854614258 29.66415023803711 0.00000364342236
v -31.02794075012207 -14.36341667175293 -0.29999455809593
v -32.07722854614258 -15.09523296356201 0.00000559991713
v 36.01987075805664 -19.36396026611328 -0.30000427365303
v -35.99787521362305 -19.36396026611328 -0.29999339580536
v -35.08931350708008 -18.69157600402832 0.00000643544809
v 35.11130905151367 -18.69157600402832 -0.00000416455077
v -35.99787521362305 33.93288040161133 -0.29999572038651
v -35.08931350708008 33.26049423217773 0.00000416455077
v 36.01987075805664 33.93288040161133 -0.30000659823418
v 35.11130905151367 33.26049423217773 -0.00000643544809
v 36.01987075805664 -19.36396026611328 -3.00000429153442
v -35.99787521362305 -19.36396026611328 -2.99999356269836
v -35.99787521362305 33.93288040161133 -2.99999594688416
v 36.01987075805664 33.93288040161133 -3.00000667572021
# 24 vertices

vn 0.00000014748045 0.00000004405395 1
vn -0.27489390969276 0.00000004199914 0.96147453784943
vn 0.00000013386267 -0.37930428981781 0.92527198791504
vn 0.2748940885067 0.00000004200464 0.96147453784943
vn 0.00000013383927 0.37930506467819 0.92527168989182
vn 0.00000013793736 -0.40745633840561 0.91322469711304
vn -0.31354144215584 0.00000004153464 0.94957453012466
vn 0.00000013783067 0.40745639801025 0.91322469711304
vn 0.31354171037674 0.00000004151208 0.94957441091537
vn 0.00000018635779 0.00000004516992 1
vn 0.00000018635779 0.00000004516992 1
vn 0.00000018635781 0.00000004516992 1
vn 0.00000018635781 0.00000004516992 1
vn 0 -1 0
vn -1 0 0
vn 0 1 0
vn 1 0 0
vn -0.00000000000001 1 -0.00000004371139
# 18 normals

vt 0.00995187461376 0.18883979320526 0
vt 0.00995187461376 0.54186791181564 0
vt 0.74036026000977 0.54186791181564 0
vt 0.74036026000977 0.18883979320526 0
vt 0.79883646965027 0.95137405395508 0
vt 0.8111823797226 0.95734119415283 0
vt 0.8111823797226 0.59237885475159 0
vt 0.79883646965027 0.59834599494934 0
vt 0.06842812150717 0.95137405395508 0
vt 0.05608220770955 0.95734119415283 0
vt 0.05608220770955 0.59237885475159 0
vt 0.06842812150717 0.59834599494934 0
vt 0.00995187461376 0.55757218599319 0
vt 0.020642016083 0.56305474042892 0
vt 0.84662258625031 0.56305474042892 0
vt 0.85731273889542 0.55757218599319 0
vt 0.00995187461376 0.99214786291122 0
vt 0.020642016083 0.98666530847549 0
vt 0.84662258625031 0.98666530847549 0
vt 0.85731273889542 0.99214786291122 0
vt 0.00995187461376 0.13647496700287 0
vt 0.00995187461376 0.17313551902771 0
vt 0.85731273889542 0.17313551902771 0
vt 0.85731273889542 0.13647496700287 0
vt 0.92368042469025 0.55757218599319 0
vt 0.87721645832062 0.55757218599319 0
vt 0.87721645832062 0.99214786291122 0
vt 0.92368042469025 0.99214786291122 0
vt 0.85731273889542 0.08411002159119 0
vt 0.00995187461376 0.08411002159119 0
vt 0.00995187461376 0.12077057361603 0
vt 0.85731273889542 0.12077057361603 0
vt 0.99004811048508 0.99214786291122 0
vt 0.99004811048508 0.55757218599319 0
vt 0.94358420372009 0.55757218599319 0
vt 0.94358420372009 0.99214786291122 0
vt 0.76026397943497 0.54186791181564 0
vt 0.78868514299393 0.54186791181564 0
vt 0.78868514299393 0.18883979320526 0
vt 0.76026397943497 0.18883979320526 0
vt 0.00995187461376 0.00785219669342 0
vt 0.00995187461376 0.03027677536011 0
vt 0.74036026000977 0.03027677536011 0
vt 0.74036026000977 0.00785219669342 0
vt 0.83701002597809 0.54186791181564 0
vt 0.83701002597809 0.18883979320526 0
vt 0.80858886241913 0.18883979320526 0
vt 0.80858886241913 0.54186791181564 0
vt 0.00995187461376 0.06840574741364 0
vt 0.74036026000977 0.06840574741364 0
vt 0.74036026000977 0.04598104953766 0
vt 0.00995187461376 0.04598104953766 0
# 52 texture coordinates

o Quadro.1
usemtl Quadro
f 1/4/1 4/3/1 3/2/1 2/1/1
f 5/8/2 8/7/2 7/6/2 6/5/2
f 6/5/3 7/6/3 10/10/3 9/9/3
f 11/12/4 9/9/4 10/10/4 12/11/4
f 5/8/5 11/12/5 12/11/5 8/7/5
f 13/16/6 16/15/6 15/14/6 14/13/6
f 14/13/7 15/14/7 18/18/7 17/17/7
f 19/20/8 17/17/8 18/18/8 20/19/8
f 13/16/9 19/20/9 20/19/9 16/15/9
f 20/19/11 7/6/11 8/7/10 16/15/10
f 16/15/10 8/7/10 12/11/12 15/14/12
f 15/14/12 12/11/12 10/10/13 18/18/13
f 18/18/13 10/10/13 7/6/11 20/19/11
f 14/24/14 22/23/14 21/22/14 13/21/14
f 17/28/15 23/27/15 22/26/15 14/25/15
f 17/32/16 19/31/16 24/30/16 23/29/16
f 19/36/17 13/35/17 21/34/17 24/33/17
f 1/40/15 5/39/15 6/38/15 4/37/15
f 9/44/14 3/43/14 4/42/14 6/41/14
f 9/48/17 11/47/17 2/46/17 3/45/17
f 1/52/18 2/51/18 11/50/18 5/49/18

